<?xml version="1.0" encoding="UTF-8"?><svg id="a" xmlns="http://www.w3.org/2000/svg" viewBox="0 0 960 960"><path d="M482.5,71.92c-225.1,0-407.58,182.48-407.58,407.58s182.48,407.58,407.58,407.58,407.58-182.48,407.58-407.58S707.6,71.92,482.5,71.92ZM480.84,811.89c-183.38,0-332.04-148.66-332.04-332.04S297.46,147.8,480.84,147.8s332.04,148.66,332.04,332.04-148.66,332.04-332.04,332.04h0Z"/><circle cx="480" cy="479.5" r="76.5"/><polygon points="260.47 479.5 344.92 563.95 344.92 395.05 260.47 479.5"/><polygon points="704.53 479.5 620.08 395.05 620.08 563.95 704.53 479.5"/><polygon points="482.5 257.47 397.55 342.42 567.45 342.42 482.5 257.47"/><polygon points="482.5 701.53 566.45 617.58 398.55 617.58 482.5 701.53"/></svg>