<?xml version="1.0" encoding="UTF-8"?><svg id="a" xmlns="http://www.w3.org/2000/svg" viewBox="0 0 960 960"><path d="M482.5,71.92c-225.1,0-407.58,182.48-407.58,407.58s182.48,407.58,407.58,407.58,407.58-182.48,407.58-407.58S707.6,71.92,482.5,71.92ZM480.84,811.89c-183.38,0-332.04-148.66-332.04-332.04S297.46,147.8,480.84,147.8s332.04,148.66,332.04,332.04-148.66,332.04-332.04,332.04Z"/><path d="M567.88,343.16v-67.13c-33.43-8.36-64.09-4.22-85.38,17.03-21.3-21.26-51.95-25.39-85.38-17.03v67.13c15.22-8.06,44.28-4.03,48.76,23.27l1.17,126.33h-14.05v64.45l14.05.02-1.17,35.33c-4.48,27.3-33.54,31.33-48.76,23.27v67.13c33.43,8.36,64.09,4.22,85.38-17.03,21.3,21.26,51.95,25.39,85.38,17.03v-67.13c-15.22,8.06-45.28,4.03-49.76-23.27l-.17-35.33h14.05v-64.47h-14.05l.17-126.33c4.48-27.3,34.54-31.33,49.76-23.27Z"/></svg>