<?xml version="1.0" encoding="UTF-8"?><svg id="a" xmlns="http://www.w3.org/2000/svg" viewBox="0 0 960 960"><path d="M626.41,583.19c14.4,20,24,45.6,24,79.2,0,96-78.4,139.2-166.4,139.2s-148.8-27.2-180.8-99.2l108-61.6c15.2,41.6,39.2,56.8,72.8,56.8s46.4-15.2,46.4-35.2c0-30.4-56-43.2-113.6-67.2-60-24.8-121.6-60.8-121.6-139.2,0-44,18.4-77.6,48-100.8-13.6-20-21.6-45.6-21.6-78.4,0-93.6,78.4-136,158.4-136,67.2,0,132.8,31.2,164.8,102.4l-99.2,53.6c-16-32.8-36-52-65.6-52-25.6,0-38.4,12.8-38.4,32,0,31.2,48.8,45.6,104,67.2,61.6,24,127.2,57.6,127.2,134.4,0,43.2-17.6,79.2-46.4,104.8ZM471.21,500.79c20.8,8,44.8,15.2,68.8,24.8,8-7.2,12.8-16.8,12.8-31.2,0-28.8-27.2-41.6-64-55.2-19.2-7.2-40-13.6-60.8-22.4-8,7.2-12.8,16.8-12.8,31.2,0,26.4,24,40.8,56,52.8Z"/></svg>