<?xml version="1.0" encoding="UTF-8"?><svg id="a" xmlns="http://www.w3.org/2000/svg" viewBox="0 0 960 960"><path d="M471,318h3.59l-63.07-185.5h-118.41l-159.47,469h82.27l25.6-80.46h221.61l7.88,24.76v-227.8ZM262.9,454.33l89.41-280.21,89.41,280.21h-178.82Z" style="fill:none;"/><polygon points="321.76 411.33 382.86 411.33 352.31 315.58 321.76 411.33" style="fill:none;"/><path d="M685,538c22,0,38-5.67,48-17s15-24,15-38c0-16-5.67-29-17-39s-26-15-44-15h-95v100.74l2.81,8.26h90.19Z" style="fill:none;"/><path d="M693,646h-101v120h104c32,0,51.5-8.17,58.5-24.5s10.5-28.17,10.5-35.5-3.5-19.17-10.5-35.5-27.5-24.5-61.5-24.5Z" style="fill:none;"/><path d="M856.5,628c-20.33-20-38.83-33.67-55.5-41,13.33-8,27.67-21.17,43-39.5s23-44.5,23-78.5c0-47.33-18.33-84.33-55-111-36.67-26.67-76.67-40-120-40h-171.99l-77.69-228.5h-180.01L73.6,644.5h173.75l25.6-80.46h158.73l25.6,80.46h13.72v233.5h229c38,0,78.67-11.83,122-35.5s65-65.17,65-124.5c0-40-10.17-70-30.5-90ZM592,429h95c18,0,32.67,5,44,15s17,23,17,39c0,14-5,26.67-15,38s-26,17-48,17h-90.19l-2.81-8.26v-100.74ZM463.12,521.04h-221.61l-25.6,80.46h-82.27l159.47-469h118.41l63.07,185.5h-3.59v227.8l-7.88-24.76ZM754.5,741.5c-7,16.33-26.5,24.5-58.5,24.5h-104v-120h101c34,0,54.5,8.17,61.5,24.5s10.5,28.17,10.5,35.5-3.5,19.17-10.5,35.5Z"/><path d="M262.9,454.33h178.82l-89.41-280.21-89.41,280.21ZM321.76,411.33l30.55-95.75,30.55,95.75h-61.1Z"/></svg>