<?xml version="1.0" encoding="UTF-8"?><svg id="a" xmlns="http://www.w3.org/2000/svg" viewBox="0 0 960 960"><path d="M733,521c10-11.33,15-24,15-38,0-16-5.67-29-17-39s-26-15-44-15h-95v100.74l2.81,8.26h90.19c22,0,38-5.67,48-17Z" style="fill:none;"/><path d="M546.09,318l45.91-143.89,45.91,143.89h54.09c7.68,0,15.25.43,22.72,1.26l-63.5-186.77h-118.41c-12.65,37.19-25.29,74.38-37.93,111.57l25.14,73.94h26.08Z" style="fill:none;"/><polygon points="321.76 411.33 382.86 411.33 352.31 315.58 321.76 411.33" style="fill:none;"/><polygon points="591.22 318 592.78 318 592 315.57 591.22 318" style="fill:none;"/><path d="M471,545.8v-227.8h3.59l-63.07-185.5h-118.41l-159.47,469h82.27l25.6-80.46h221.61l7.88,24.76ZM262.9,454.33l89.41-280.21,89.41,280.21h-178.82Z" style="fill:none;"/><path d="M693,646h-101v120h104c32,0,51.5-8.17,58.5-24.5s10.5-28.17,10.5-35.5-3.5-19.17-10.5-35.5-27.5-24.5-61.5-24.5Z" style="fill:none;"/><polygon points="386.07 564.04 373.33 601.5 443.6 601.5 431.68 564.04 386.07 564.04" style="fill:none;"/><path d="M856.5,628c-20.33-20-38.83-33.67-55.5-41,13.33-8,27.67-21.17,43-39.5s23-44.5,23-78.5c0-47.33-18.33-84.33-55-111-15.31-11.14-31.21-19.94-47.68-26.42l-82.31-242.09h-180.01l-4.96,14.58c-8.3,24.4-16.59,48.8-24.89,73.2l-29.84-87.77h-180.01L73.6,644.5h173.75l25.6-80.46h67.7l-27.36,80.46h157.71v233.5h229c38,0,78.67-11.83,122-35.5s65-65.17,65-124.5c0-40-10.17-70-30.5-90ZM591.22,318l.78-2.43.78,2.43h-1.55ZM594.81,538l-2.81-8.26v-100.74h95c18,0,32.67,5,44,15s17,23,17,39c0,14-5,26.67-15,38s-26,17-48,17h-90.19ZM532.8,132.49h118.41l63.5,186.77c-7.47-.84-15.04-1.26-22.72-1.26h-54.09l-45.91-143.89-45.91,143.89h-26.08l-25.14-73.94c12.64-37.19,25.28-74.38,37.93-111.57ZM241.51,521.04l-25.6,80.46h-82.27l159.47-469h118.41l63.07,185.5h-3.59v227.8l-7.88-24.76h-221.61ZM373.33,601.5l12.74-37.46h45.61l11.92,37.46h-70.27ZM754.5,741.5c-7,16.33-26.5,24.5-58.5,24.5h-104v-120h101c34,0,54.5,8.17,61.5,24.5s10.5,28.17,10.5,35.5-3.5,19.17-10.5,35.5Z"/><path d="M262.9,454.33h178.82l-89.41-280.21-89.41,280.21ZM321.76,411.33l30.55-95.75,30.55,95.75h-61.1Z"/></svg>