<?xml version="1.0" encoding="UTF-8"?><svg id="a" xmlns="http://www.w3.org/2000/svg" viewBox="0 0 24 24"><path d="M0,0h24v24H0V0Z" style="fill:none;"/><path d="M16.86,22.02v.92c-.01.12-.06.25-.21.25h-8.1c-.11,0-.26-.05-.26-.14l-.02-1.4c-.01-.62-.25-1.07-.56-1.59l-4.63-7.28c-.25-.4-.32-.79-.12-1.21.16-.34.51-.59.93-.65.54-.08.95.16,1.34.55l2.17,2.23s.13.05.15.02c.04-.01.07-.08.07-.14l.02-2.6.02-6.66c0-.58.61-.94,1.09-.94.54,0,1.1.38,1.1,1l.04,6.01c0,.16.26.25.38.22.12-.02.28-.13.28-.32V2.92c.01-.43.39-.79.72-.92.42-.16.88-.08,1.22.23.15.15.31.39.31.63l.02,7.49c0,.18.22.25.33.25.14,0,.33-.11.33-.31l.02-5.99c0-.59.61-.93,1.12-.92.66.01,1.08.49,1.08,1.13v6.6c0,.18.23.28.35.27.19-.01.29-.16.29-.36l.02-4.37c0-.49.43-.9.9-.97.52-.08,1.17.32,1.17.88l.02,6.77c0,.93.01,1.8-.02,2.71-.13,2.83-1.6,4.06-1.63,5.97h.05Z"/></svg>