<?xml version="1.0" encoding="UTF-8"?><svg id="a" xmlns="http://www.w3.org/2000/svg" viewBox="0 0 1024 1024"><path d="M516.5,957.29c-7.66,0-15.21-2.52-21.36-7.15l-370.26-194.85c-11.59-6.15-18.84-18.14-18.84-31.23l.1-438.77v-.5c.1-6.05,1.81-11.79,4.63-16.83v-.2c1.21-2.02,2.62-3.93,4.13-5.74,2.52-2.82,5.54-5.14,8.97-7.05l1.81-.91L502.7,70.27c9.77-4.74,21.06-4.74,30.83,0l377.11,183.07c1.71.81,3.32,1.71,4.84,2.72,4.03,2.72,7.35,6.15,9.87,10.08s4.33,8.36,5.14,13.1c.3,2.02.5,4.03.5,6.15v438.77c0,13.1-7.35,25.19-18.94,31.23l-373.49,194.85c-.91.71-1.91,1.41-2.92,2.02-5.54,3.32-11.89,5.04-18.24,5.04h-.91ZM176.56,702.79l305.68,160.9.6-363.41-306.18-157.17-.1,359.68ZM553.38,490.7l-.6,372.58,307.9-160.6v-361.09l-307.29,149.11ZM222,285.27l296.21,144.18,297.02-144.18-297.02-144.18-296.21,144.18Z"/><path d="M387.88,188.75l357.66,173.81-1.88,205.22-105.09,50.53,1.88-208.88-348.94-177.75,96.38-42.94Z"/></svg>