<?xml version="1.0" encoding="UTF-8"?><svg id="a" xmlns="http://www.w3.org/2000/svg" viewBox="0 0 24 24"><path d="M15.5,14h-.79l-.28-.27c1.01-1.18,1.57-2.68,1.57-4.23,0-3.59-2.91-6.5-6.5-6.5s-6.5,2.91-6.5,6.5,2.91,6.5,6.5,6.5c1.61,0,3.09-.59,4.23-1.57l.27.28v.79l5,4.99,1.49-1.49-4.99-5ZM9.5,14c-2.49,0-4.5-2.01-4.5-4.5s2.01-4.5,4.5-4.5,4.5,2.01,4.5,4.5-2.01,4.5-4.5,4.5"/><path d="M0,0h24v24H0V0Z" style="fill:none;"/><path d="M7.7,8.09h3.81v1.31h-3.81v-1.31ZM7.7,9.93h3.81v1.31h-3.81v-1.31Z"/></svg>